<?xml version="1.0" standalone="no"?>
<!DOCTYPE svg PUBLIC "-//W3C//DTD SVG 20010904//EN"
 "http://www.w3.org/TR/2001/REC-SVG-20010904/DTD/svg10.dtd">
<svg version="1.0" xmlns="http://www.w3.org/2000/svg"
 width="920.000000pt" height="512.000000pt" viewBox="0 0 920.000000 512.000000"
 preserveAspectRatio="xMidYMid meet">

<g transform="translate(0.000000,512.000000) scale(0.100000,-0.100000)"
fill="#000000" stroke="none">
<path d="M2563 4595 c-164 -36 -291 -178 -314 -353 -11 -88 -11 -3276 0 -3364
24 -182 163 -330 337 -358 37 -6 795 -10 2019 -10 2137 0 2041 -2 2142 57 110
64 187 182 204 311 11 88 11 3276 0 3364 -24 181 -163 330 -337 358 -37 6
-793 10 -2024 9 -1608 0 -1976 -3 -2027 -14z m3922 -410 c64 -31 60 83 60
-1629 -1 -1479 -2 -1562 -19 -1588 -9 -14 -31 -31 -48 -37 -44 -15 -3712 -15
-3756 0 -17 6 -39 23 -48 37 -17 26 -18 109 -19 1588 0 1313 2 1565 14 1587
32 60 -99 57 1929 57 1652 0 1858 -2 1887 -15z"/>
<path d="M4598 3993 l-1738 -3 0 -1433 0 -1432 1075 0 1075 0 0 103 0 102 460
0 460 0 0 -100 0 -100 205 0 205 0 0 1435 c0 789 -1 1434 -2 1433 -2 -2 -785
-4 -1740 -5z m128 -748 c108 -48 177 -155 177 -276 0 -170 -133 -302 -303
-302 -121 0 -218 60 -271 169 -127 257 134 526 397 409z m-852 -402 c150 -77
140 -302 -16 -368 -70 -29 -161 -13 -217 38 -56 52 -78 163 -45 233 49 104
177 148 278 97z m1631 2 c69 -28 115 -101 115 -182 -1 -115 -88 -203 -200
-203 -151 0 -247 157 -180 296 47 95 158 133 265 89z m-737 -510 c86 -18 182
-53 273 -101 l69 -36 0 -179 0 -179 -510 0 -510 0 0 179 0 179 69 36 c87 45
187 83 266 101 82 18 259 18 343 0z m-890 -327 l2 -168 -255 0 -255 0 0 95 0
94 43 29 c132 91 288 136 417 122 l45 -5 3 -167z m1680 158 c66 -18 168 -65
227 -106 l45 -31 0 -94 0 -95 -255 0 -255 0 0 163 c0 90 3 167 7 170 12 12
177 7 231 -7z"/>
</g>
</svg>
