<?xml version="1.0" standalone="no"?>
<!DOCTYPE svg PUBLIC "-//W3C//DTD SVG 20010904//EN"
 "http://www.w3.org/TR/2001/REC-SVG-20010904/DTD/svg10.dtd">
<svg version="1.0" xmlns="http://www.w3.org/2000/svg"
 width="512.000000pt" height="512.000000pt" viewBox="0 0 512.000000 512.000000"
 preserveAspectRatio="xMidYMid meet">

<g transform="translate(0.000000,512.000000) scale(0.100000,-0.100000)"
fill="#000000" stroke="none">
<path d="M1001 4304 c-169 -45 -301 -180 -346 -351 -23 -87 -22 -2700 0 -2788
45 -171 179 -305 352 -350 86 -23 3020 -23 3106 0 89 23 156 62 223 129 67 67
106 134 129 223 23 86 23 2700 0 2786 -45 173 -179 307 -350 352 -87 22 -3030
22 -3114 -1z m3085 -330 c15 -11 37 -33 48 -48 21 -27 21 -30 21 -1366 0
-1336 0 -1339 -21 -1366 -49 -66 -58 -69 -265 -72 l-189 -3 0 160 0 161 -400
0 -400 0 0 -160 0 -160 -909 2 c-901 3 -910 3 -937 24 -15 11 -37 33 -48 48
-21 27 -21 32 -24 1339 -1 722 0 1326 3 1344 7 40 49 91 90 109 25 11 296 13
1517 11 1484 -2 1487 -2 1514 -23z"/>
<path d="M2460 3344 c-227 -82 -293 -362 -125 -529 65 -66 125 -90 225 -90
100 0 160 24 225 90 66 65 90 125 90 225 0 100 -24 160 -90 225 -82 82 -222
116 -325 79z"/>
<path d="M1760 3027 c-49 -16 -133 -102 -148 -153 -28 -94 -8 -169 63 -239
101 -102 229 -102 330 0 102 101 102 229 0 330 -70 71 -152 91 -245 62z"/>
<path d="M3200 3027 c-49 -16 -133 -102 -148 -153 -28 -94 -8 -169 63 -239 70
-71 145 -91 239 -63 55 16 138 99 154 154 28 94 8 169 -63 239 -70 71 -152 91
-245 62z"/>
<path d="M2445 2554 c-121 -20 -233 -65 -339 -139 -68 -47 -70 -47 -110 -35
-156 47 -371 4 -513 -103 l-42 -32 -1 -162 0 -163 1120 0 1120 0 0 159 0 159
-42 37 c-57 48 -168 101 -246 116 -70 13 -191 8 -262 -12 -45 -12 -46 -12 -95
25 -66 51 -169 101 -257 126 -72 21 -266 34 -333 24z"/>
</g>
</svg>
